HIERARCHY
ROOT Hips
{
	OFFSET 0.000000 0.000000 0.000000
	CHANNELS 6 Xposition Yposition Zposition Xrotation Yrotation Zrotation
	JOINT LeftUpLeg
	{
		OFFSET 3.317160 0.000000 0.000000
		CHANNELS 6 Xposition Yposition Zposition Xrotation Yrotation Zrotation
		JOINT LeftLeg
		{
			OFFSET 0.000000 -16.621309 0.000000
			CHANNELS 6 Xposition Yposition Zposition Xrotation Yrotation Zrotation
			JOINT LeftFoot
			{
				OFFSET 0.000000 -16.132090 0.000000
				CHANNELS 6 Xposition Yposition Zposition Xrotation Yrotation Zrotation
				JOINT LeftToeBase
				{
					OFFSET 0.000000 -1.705429 6.364750
					CHANNELS 6 Xposition Yposition Zposition Xrotation Yrotation Zrotation
					End Site
					{
						OFFSET 0.000000 0.000000 2.952750
					}
				}
			}
		}
	}
	JOINT RightUpLeg
	{
		OFFSET -3.317160 0.000000 0.000000
		CHANNELS 6 Xposition Yposition Zposition Xrotation Yrotation Zrotation
		JOINT RightLeg
		{
			OFFSET 0.000000 -16.621309 0.000000
			CHANNELS 6 Xposition Yposition Zposition Xrotation Yrotation Zrotation
			JOINT RightFoot
			{
				OFFSET 0.000000 -16.132090 0.000000
				CHANNELS 6 Xposition Yposition Zposition Xrotation Yrotation Zrotation
				JOINT RightToeBase
				{
					OFFSET 0.000000 -1.705429 6.364750
					CHANNELS 6 Xposition Yposition Zposition Xrotation Yrotation Zrotation
					End Site
					{
						OFFSET 0.000000 0.000000 2.952750
					}
				}
			}
		}
	}
	JOINT Spine
	{
		OFFSET 0.000000 0.039370 0.000000
		CHANNELS 6 Xposition Yposition Zposition Xrotation Yrotation Zrotation
		JOINT Spine1
		{
			OFFSET 0.000000 9.216790 0.000000
			CHANNELS 6 Xposition Yposition Zposition Xrotation Yrotation Zrotation
			JOINT Neck
			{
				OFFSET 0.000000 8.819270 0.000000
				CHANNELS 3 Xrotation Yrotation Zrotation
				JOINT Head
				{
					OFFSET 0.000000 6.846361 0.000000
					CHANNELS 6 Xposition Yposition Zposition Xrotation Yrotation Zrotation
					End Site
					{
						OFFSET 0.000000 4.527550 0.000000
					}
				}
			}
			JOINT LeftShoulder
			{
				OFFSET 0.000000 8.819270 0.000000
				CHANNELS 3 Xrotation Yrotation Zrotation
				JOINT LeftArm
				{
					OFFSET 7.313730 -0.000031 0.000000
					CHANNELS 6 Xposition Yposition Zposition Xrotation Yrotation Zrotation
					JOINT LeftForeArm
					{
						OFFSET 10.822620 -0.000040 0.000000
						CHANNELS 6 Xposition Yposition Zposition Xrotation Yrotation Zrotation
						JOINT LeftHand
						{
							OFFSET 10.147810 -0.000040 0.000000
							CHANNELS 6 Xposition Yposition Zposition Xrotation Yrotation Zrotation
							JOINT LeftHandThumb
							{
								OFFSET 0.000000 0.000000 0.000000
								CHANNELS 6 Xposition Yposition Zposition Xrotation Yrotation Zrotation
								End Site
								{
									OFFSET 0.000000 0.000000 3.937000
								}
							}
							JOINT L_Wrist_End
							{
								OFFSET 3.937000 -0.000010 0.000000
								CHANNELS 6 Xposition Yposition Zposition Xrotation Yrotation Zrotation
								End Site
								{
									OFFSET 0.000000 0.100000 0.000000
								}
							}
						}
					}
				}
			}
			JOINT RightShoulder
			{
				OFFSET 0.000000 8.819270 0.000000
				CHANNELS 3 Xrotation Yrotation Zrotation
				JOINT RightArm
				{
					OFFSET -7.313730 -0.000031 0.000000
					CHANNELS 6 Xposition Yposition Zposition Xrotation Yrotation Zrotation
					JOINT RightForeArm
					{
						OFFSET -10.822620 -0.000040 0.000000
						CHANNELS 6 Xposition Yposition Zposition Xrotation Yrotation Zrotation
						JOINT RightHand
						{
							OFFSET -10.147810 -0.000040 0.000000
							CHANNELS 6 Xposition Yposition Zposition Xrotation Yrotation Zrotation
							JOINT RightHandThumb
							{
								OFFSET 0.000000 0.000000 0.000000
								CHANNELS 6 Xposition Yposition Zposition Xrotation Yrotation Zrotation
								End Site
								{
									OFFSET 0.000000 0.000000 3.937000
								}
							}
							JOINT R_Wrist_End
							{
								OFFSET -5.393688 -0.000019 0.000000
								CHANNELS 6 Xposition Yposition Zposition Xrotation Yrotation Zrotation
								End Site
								{
									OFFSET 0.000000 0.100000 0.000000
								}
							}
						}
					}
				}
			}
		}
	}
}
MOTION
Frames: 5
Frame Time: 0.041667
-1.968299 33.985851 0.195442 -1.834043 6.025331 -0.946583 3.317159 0.000037 0.000002 -4.934502 -3.070094 10.120935 -0.000000 -16.621309 0.000004 20.700446 -0.419313 -1.801428 -0.000005 -16.132063 0.000015 -12.483690 1.041216 -5.559469 0.000001 -1.705425 6.364748 -0.000001 -0.000000 0.000002 -3.317162 0.000022 0.000002 -1.858151 -1.673847 -2.524360 0.000001 -16.621313 -0.000001 18.033743 0.241243 1.859666 0.000001 -16.132046 -0.000103 -13.935722 -12.388828 1.728477 0.000002 -1.705433 6.364743 -0.002646 0.003664 -0.000661 0.000000 0.039369 0.000001 -0.000003 0.000001 -0.000000 -0.044011 9.107226 0.142663 17.738269 -6.051134 6.689172 -5.854118 6.615894 -5.536782 0.000001 6.846350 -0.000003 -5.854059 6.615918 -5.536797 1.054261 -7.639143 -3.112406 7.313722 -0.000020 0.000012 67.222558 -30.030887 -40.376417 10.822614 -0.000039 0.000024 -0.249133 -84.547906 0.044546 10.147816 -0.000040 -0.000000 0.000002 0.000002 0.000001 -0.000002 0.000002 -0.000000 0.000003 0.000002 0.000001 3.937004 -0.000009 0.000000 0.000001 0.000004 0.000002 1.281624 1.674117 4.756061 -7.313725 -0.000006 0.000011 69.584089 24.807985 23.430418 -10.822621 -0.000013 0.000012 -0.505706 95.885590 -0.012991 -10.147808 -0.000040 0.000001 0.000002 -0.000000 0.000000 -0.000006 0.000002 0.000001 0.000002 -0.000003 0.000001 -5.393692 -0.000014 0.000001 0.000001 -0.000000 0.000000 
-1.883966 34.007885 0.226658 -1.724684 6.321049 -0.526799 3.317156 0.000006 -0.000001 -4.661869 -3.180438 9.555262 0.000000 -16.621321 0.000002 19.911827 -0.389148 -1.805528 -0.000008 -16.132076 -0.000029 -12.118267 0.943775 -5.454366 -0.000000 -1.705429 6.364748 -0.000002 -0.000001 0.000001 -3.317161 0.000013 -0.000001 -1.837657 -1.980726 -3.129603 -0.000001 -16.621302 -0.000002 17.944944 0.243664 1.861984 0.000003 -16.132063 -0.000098 -13.949476 -12.368738 1.896756 -0.000001 -1.705437 6.364742 -0.002669 0.003662 -0.000666 0.000000 0.039373 0.000002 -0.000013 0.000000 -0.000000 -0.042120 9.108566 0.141173 17.361781 -5.860636 6.393371 -5.711360 6.632915 -5.703547 0.000000 6.846363 -0.000005 -5.711347 6.632923 -5.703561 1.051654 -7.612919 -3.089577 7.313717 -0.000006 0.000005 67.308393 -29.695163 -40.361664 10.822617 -0.000036 0.000028 -0.243708 -85.096582 0.050121 10.147809 -0.000041 0.000002 -0.000000 -0.000003 -0.000002 0.000008 0.000001 0.000003 -0.000001 -0.000002 -0.000001 3.937012 -0.000009 0.000001 -0.000001 -0.000000 -0.000001 1.270849 1.646737 4.689114 -7.313726 -0.000003 0.000007 69.685463 25.060831 23.521761 -10.822615 -0.000004 0.000035 -0.504832 95.616651 -0.013723 -10.147816 -0.000039 0.000002 0.000003 -0.000009 -0.000001 -0.000002 0.000002 -0.000003 -0.000003 -0.000002 -0.000000 -5.393692 -0.000015 -0.000003 -0.000004 -0.000000 0.000000 
-1.790872 34.025208 0.258145 -1.642466 6.572916 -0.147678 3.317153 0.000014 -0.000001 -4.397150 -3.295459 8.989731 0.000000 -16.621286 0.000001 19.214270 -0.361721 -1.811547 -0.000006 -16.132074 -0.000055 -11.847346 0.933881 -5.305076 0.000000 -1.705433 6.364748 0.000001 -0.000000 0.000002 -3.317161 0.000000 -0.000000 -1.863454 -2.312718 -3.691438 0.000002 -16.621304 0.000002 17.936862 0.247330 1.863781 0.000008 -16.132040 -0.000101 -13.977236 -12.279960 2.059522 0.000000 -1.705430 6.364741 -0.002667 0.003650 -0.000671 0.000000 0.039364 0.000002 0.000020 0.000001 0.000002 -0.040172 9.109888 0.139677 16.986351 -5.668126 6.096718 -5.571670 6.649237 -5.868775 0.000000 6.846355 -0.000009 -5.571634 6.649253 -5.868790 1.070013 -7.722603 -3.199310 7.313720 -0.000002 0.000004 67.333289 -29.109686 -40.502660 10.822614 -0.000026 0.000021 -0.237495 -85.643271 0.056397 10.147814 -0.000039 -0.000001 0.000001 -0.000007 0.000001 -0.000006 -0.000000 0.000000 0.000004 -0.000003 -0.000000 3.936996 -0.000010 0.000001 0.000003 -0.000002 -0.000000 1.244681 1.593275 4.527184 -7.313730 -0.000020 0.000003 69.849811 25.464381 23.563161 -10.822606 -0.000012 0.000015 -0.504500 95.290831 -0.014034 -10.147812 -0.000039 0.000003 0.000000 -0.000003 -0.000001 0.000001 0.000001 -0.000001 -0.000000 0.000001 -0.000003 -5.393688 -0.000017 0.000001 0.000001 -0.000000 0.000000 
-1.697556 34.044697 0.289936 -1.562388 6.824946 0.224620 3.317162 0.000012 -0.000000 -4.117834 -3.446930 8.457339 -0.000001 -16.621302 -0.000000 18.526135 -0.335678 -1.818601 -0.000011 -16.132080 -0.000078 -11.526422 0.923369 -5.153731 0.000000 -1.705429 6.364748 0.000001 -0.000001 0.000001 -3.317165 0.000005 -0.000001 -1.769475 -2.648256 -4.240467 -0.000002 -16.621298 0.000005 17.795320 0.249216 1.865705 0.000006 -16.132063 -0.000107 -13.994192 -12.181805 2.222568 -0.000000 -1.705433 6.364742 -0.002595 0.003701 -0.000681 -0.000000 0.039367 0.000001 -0.000005 -0.000000 0.000000 -0.038364 9.111217 0.138177 16.612417 -5.473064 5.807196 -5.589204 6.656552 -5.959601 0.000002 6.846357 -0.000002 -5.589193 6.656565 -5.959607 1.043013 -7.383861 -3.136710 7.313724 -0.000041 0.000003 67.354483 -28.883412 -40.277632 10.822615 -0.000026 0.000020 -0.231248 -86.091229 0.062692 10.147810 -0.000040 0.000001 0.000002 -0.000001 0.000000 0.000002 -0.000000 0.000000 0.000000 -0.000003 -0.000001 3.937000 -0.000011 0.000001 0.000001 -0.000001 0.000001 1.253724 1.684206 4.611285 -7.313729 -0.000022 0.000012 70.052913 25.520981 23.595657 -10.822627 -0.000015 0.000019 -0.503577 95.091615 -0.014943 -10.147816 -0.000040 -0.000001 0.000001 -0.000002 -0.000001 -0.000002 0.000001 0.000001 -0.000000 -0.000001 0.000000 -5.393692 -0.000018 0.000001 0.000001 -0.000001 0.000001 
-1.593305 34.057610 0.323345 -1.525528 7.049069 0.554629 3.317158 0.000020 0.000000 -3.854850 -3.602870 7.922796 -0.000002 -16.621284 0.000002 17.953736 -0.312784 -1.824711 -0.000002 -16.132040 -0.000098 -11.329010 0.939517 -4.984559 -0.000001 -1.705429 6.364748 0.000002 -0.000001 0.000001 -3.317160 0.000009 -0.000001 -1.737867 -2.980848 -4.798537 0.000001 -16.621305 -0.000001 17.766357 0.256021 1.867020 0.000002 -16.132059 -0.000103 -14.009857 -12.083134 2.437784 0.000004 -1.705431 6.364747 -0.002612 0.003682 -0.000683 0.000000 0.039365 0.000001 0.000002 -0.000001 0.000000 -0.037061 9.112077 0.137186 16.323481 -5.240913 5.541568 -5.534248 6.662424 -6.109102 0.000000 6.846363 -0.000001 -5.534227 6.662429 -6.109097 1.043297 -7.243433 -3.143644 7.313718 -0.000015 0.000011 67.294835 -28.482393 -40.288486 10.822610 -0.000035 0.000000 -0.222992 -86.539207 0.070986 10.147810 -0.000040 0.000001 0.000001 -0.000000 0.000001 0.000002 0.000002 -0.000000 0.000001 -0.000004 -0.000001 3.937004 -0.000008 0.000000 0.000001 -0.000002 -0.000000 1.244577 1.731628 4.578769 -7.313735 -0.000018 0.000010 70.298595 25.769476 23.573150 -10.822613 -0.000007 0.000033 -0.503237 94.892399 -0.015256 -10.147812 -0.000039 -0.000001 -0.000001 0.000001 -0.000000 0.000001 0.000002 -0.000001 -0.000001 -0.000008 -0.000002 -5.393691 -0.000016 -0.000001 -0.000001 -0.000004 -0.000004 
